<svg width="142" height="42" viewBox="0 0 142 42" fill="none" xmlns="http://www.w3.org/2000/svg">
<g id="Group 627">
<g id="Group 626">
<path id="Vector" d="M79.611 41.8686L72.2802 34.5436L64.9487 41.8686" fill="#1FDCC1"/>
<path id="Vector_2" d="M32.5554 20.0951C32.4679 19.523 32.4248 18.945 32.4265 18.3662V2.82233C32.4149 2.12899 32.1311 1.46796 31.6363 0.98173C31.1415 0.495504 30.4753 0.223022 29.7814 0.223022C29.0874 0.223022 28.4212 0.495504 27.9264 0.98173C27.4316 1.46796 27.1478 2.12899 27.1362 2.82233V18.5452C27.1362 19.0761 27.165 19.5908 27.2099 20.0951H32.5554Z" fill="#200062"/>
<path id="Vector_3" d="M52.9271 20.0951C52.9735 19.576 53.0008 19.0473 53.0008 18.5002V2.82225C53.0008 2.12137 52.7221 1.44919 52.2261 0.95359C51.7301 0.45799 51.0574 0.179565 50.356 0.179565C49.6546 0.179565 48.9819 0.45799 48.4859 0.95359C47.9899 1.44919 47.7112 2.12137 47.7112 2.82225V18.3662C47.7127 18.9449 47.6693 19.523 47.5815 20.0951H52.9271Z" fill="#200062"/>
<path id="Vector_4" d="M18.0825 20.0951V2.82225C18.0803 2.12177 17.8008 1.45061 17.305 0.955432C16.8091 0.460253 16.1373 0.181313 15.4362 0.179565C14.0022 0.179565 12.8364 1.38862 12.8364 2.82225V20.0951H18.0825Z" fill="#200062"/>
<path id="Vector_5" d="M71.6972 17.6947C74.1909 18.3405 76.4724 18.9229 77.6581 20.0952H83.7206C82.8562 14.8878 77.5564 13.5116 73.0421 12.3637C69.4998 11.4676 66.4519 10.7062 66.4519 8.37722C66.4519 6.1373 68.4246 4.65876 71.9655 4.65876C74.4376 4.67003 76.8526 5.40192 78.9145 6.76466C79.3183 7.05789 79.8052 7.21473 80.3043 7.21234C80.9565 7.20658 81.5803 6.94515 82.0415 6.48435C82.5026 6.02355 82.7642 5.40023 82.77 4.74859C82.7718 4.34473 82.6696 3.94721 82.4733 3.59416C82.2771 3.24112 81.9933 2.94441 81.6492 2.73252C78.7354 0.896113 75.9109 0 72.4143 0C65.421 0 61.0718 3.80829 61.0718 8.73507C61.0718 15.0513 66.8101 16.4849 71.6972 17.6947Z" fill="#200062"/>
<path id="Vector_6" d="M91.063 5.06231H98.0563V20.0952H103.302V5.06231H110.295C111.548 5.06231 112.626 4.03145 112.626 2.77969C112.623 2.16289 112.376 1.57229 111.94 1.13621C111.503 0.700126 110.912 0.453778 110.295 0.450684H91.0616C90.4443 0.453778 89.8531 0.700126 89.4166 1.13621C88.98 1.57229 88.7333 2.16289 88.73 2.77969C88.7315 4.03587 89.8073 5.06231 91.063 5.06231Z" fill="#200062"/>
<path id="Vector_7" d="M138.852 0.449036H119.618C119.001 0.452324 118.41 0.698756 117.974 1.13482C117.538 1.57088 117.291 2.16137 117.288 2.77805C117.288 4.02981 118.363 5.06067 119.618 5.06067H126.612V20.0958H131.861V5.06288H138.855C140.108 5.06288 141.186 4.03201 141.186 2.78025C141.184 2.16256 140.937 1.57096 140.499 1.13431C140.062 0.69767 139.47 0.451361 138.852 0.449036Z" fill="#200062"/>
<path id="Vector_8" d="M12.7978 21.5101C12.5185 24.3678 10.573 26.2049 7.59151 26.2049C6.3423 26.2196 5.11974 25.8438 4.09489 25.1299C3.71807 24.898 3.28467 24.7742 2.84214 24.772C2.53521 24.7695 2.23083 24.828 1.94672 24.9441C1.66261 25.0602 1.40446 25.2316 1.18727 25.4483C0.970091 25.6651 0.79822 25.9228 0.681665 26.2065C0.565109 26.4903 0.506198 26.7943 0.508358 27.101C0.508358 27.9073 0.911447 28.5796 1.54003 29.0273C3.46778 30.3262 5.61955 30.8637 7.99534 30.8637C13.5958 30.8637 17.7918 27.8742 18.0571 21.5123L12.7978 21.5101Z" fill="#200062"/>
<path id="Vector_9" d="M126.612 21.5101V27.9522C126.614 28.6526 126.894 29.3236 127.39 29.8188C127.885 30.314 128.557 30.593 129.258 30.5949C130.693 30.5949 131.858 29.3851 131.858 27.9522V21.5101H126.612Z" fill="#200062"/>
<path id="Vector_10" d="M98.0566 21.5101V27.9522C98.0588 28.6526 98.3382 29.3236 98.8339 29.8188C99.3296 30.314 100.001 30.593 100.702 30.5949C102.136 30.5949 103.302 29.3851 103.302 27.9522V21.5101H98.0566Z" fill="#200062"/>
<path id="Vector_11" d="M47.2463 21.5101C46.2883 24.4311 43.8565 26.2049 40.0924 26.2049C36.2907 26.2049 33.8522 24.4319 32.8943 21.5101H27.4028C28.4411 27.1938 32.6268 30.8615 40.0924 30.8615C47.5123 30.8615 51.6913 27.2306 52.7333 21.5101H47.2463Z" fill="#200062"/>
<path id="Vector_12" d="M78.4414 21.5101C78.4872 21.7132 78.5119 21.9205 78.515 22.1286C78.515 24.0998 76.8113 26.2049 72.507 26.2049C69.3693 26.2049 66.8137 25.1299 64.7518 23.6072C64.3123 23.2791 63.7764 23.1059 63.2279 23.1146C61.8823 23.1146 60.7622 24.2338 60.7622 25.6225C60.7652 26.0044 60.8556 26.3806 61.0265 26.7223C61.1974 27.064 61.4442 27.362 61.7482 27.5937C64.393 29.6097 67.8454 30.8637 72.286 30.8637C80.3558 30.8637 83.8554 26.6084 83.8554 21.636C83.8554 21.5926 83.8554 21.5528 83.8517 21.5101H78.4414Z" fill="#200062"/>
</g>
</g>
</svg>
